<?xml version="1.0" encoding="UTF-8"?>
<svg width="90px" height="32px" viewBox="0 0 90 32" version="1.1" xmlns="http://www.w3.org/2000/svg" xmlns:xlink="http://www.w3.org/1999/xlink">
    <!-- Generator: Sketch 47.1 (45422) - http://www.bohemiancoding.com/sketch -->
    <title>Audi-Logo_2016</title>
    <desc>Created with Sketch.</desc>
    <defs></defs>
    <g id="Page-1" stroke="none" stroke-width="1" fill="none" fill-rule="evenodd">
        <g id="Desktop-HD-Copy-11" transform="translate(-353.000000, -1853.000000)" stroke="#FFFFFF" stroke-width="3.584">
            <g id="Logos" transform="translate(355.000000, 1843.000000)">
                <g id="Audi-Logo_2016" transform="translate(0.000000, 12.000000)">
                    <path d="M13.401481,0 C5.83914814,0.250403415 -0.124162187,6.47454586 0.00196429723,13.9856046 C0.128090781,21.4966633 6.29706206,27.52 13.8635997,27.52 C21.4301373,27.52 27.5991086,21.4966633 27.725235,13.9856046 C27.8513615,6.47454586 21.8880512,0.250403415 14.3257184,1.22247318e-15 L13.401481,0 Z M32.8104671,0 C25.2481343,0.250403415 19.284824,6.47454586 19.4109504,13.9856046 C19.5370769,21.4966633 25.7060482,27.52 33.2725858,27.52 C40.8391234,27.52 47.0080947,21.4966633 47.1342212,13.9856046 C47.2603477,6.47454586 41.2970373,0.250403415 33.7347045,1.22247318e-15 L32.8104671,0 Z M52.2194532,0 C44.6571204,0.250403415 38.6938101,6.47454586 38.8199366,13.9856046 C38.9460631,21.4966633 45.1150344,27.52 52.681572,27.52 C60.2481096,27.52 66.4170809,21.4966633 66.5432073,13.9856046 C66.6693338,6.47454586 60.7060235,0.250403415 53.1436907,1.22247318e-15 L52.2194532,0 Z M71.6284394,0 C64.0661066,0.250403415 58.1027963,6.47454586 58.2289227,13.9856046 C58.3550492,21.4966633 64.5240205,27.52 72.0905581,27.52 C79.6570957,27.52 85.826067,21.4966633 85.9521935,13.9856046 C86.07832,6.47454586 80.1150096,0.250403415 72.5526768,1.22247318e-15 L71.6284394,0 Z" id="Shape"></path>
                </g>
            </g>
        </g>
    </g>
</svg>