<?xml version="1.0" encoding="UTF-8"?>
<svg width="93px" height="22px" viewBox="0 0 93 22" version="1.1" xmlns="http://www.w3.org/2000/svg" xmlns:xlink="http://www.w3.org/1999/xlink">
    <!-- Generator: Sketch 47.1 (45422) - http://www.bohemiancoding.com/sketch -->
    <title>Bosch-brand</title>
    <desc>Created with Sketch.</desc>
    <defs></defs>
    <g id="Page-1" stroke="none" stroke-width="1" fill="none" fill-rule="evenodd">
        <g id="Desktop-HD-Copy-11" transform="translate(-558.000000, -1855.000000)" fill="#FFFFFF">
            <g id="Logos" transform="translate(355.000000, 1843.000000)">
                <g id="Bosch-brand" transform="translate(203.000000, 11.000000)">
                    <g id="g26531" transform="translate(0.000000, 0.000000)">
                        <g id="q57" transform="translate(8.786058, 11.700794) scale(-1, 1) rotate(-180.000000) translate(-8.786058, -11.700794) translate(0.023346, 0.993898)">
                            <g id="xfrm58" transform="translate(0.122046, 0.001158)">
                                <path d="M11.2587952,6.18111948 C11.2587952,7.33061061 10.4054278,8.12596559 8.61432983,8.12596559 L5.02564435,8.12596559 L5.02564435,4.20627823 L8.70193788,4.20627823 C10.201009,4.20627823 11.2587952,4.73683741 11.2587952,6.18111948 Z M10.6130914,13.9605039 C10.6130914,15.080645 9.84733207,15.8469724 8.70193788,15.8469724 L5.02564435,15.8469724 L5.02564435,12.1337032 L8.61432983,12.1337032 C9.90573744,12.1337032 10.6130914,13.0764536 10.6130914,13.9605039 Z M16.609376,5.62153274 C16.609376,2.26143212 13.4944229,0.0511451515 10.3470225,0.0511451515 L0.0871458938,0.0511451515 L0.0871458938,20.0027505 L9.49365511,20.0027505 C13.1115433,20.0027505 15.7268059,18.2062675 15.7268059,14.5210582 C15.7268059,11.3673758 12.9655298,10.4246253 12.9655298,10.4246253 C12.9655298,10.3949527 16.609376,9.5696026 16.609376,5.62153274 L16.609376,5.62153274 Z" id="path3190"></path>
                            </g>
                        </g>
                        <g id="q59" transform="translate(28.329330, 11.817687) scale(-1, 1) rotate(-180.000000) translate(-28.329330, -11.817687) translate(18.371703, 0.714239)">
                            <g id="xfrm60" transform="translate(0.119002, 0.043251)">
                                <path d="M13.62143,10.5124899 C13.62143,13.6364998 12.1807643,16.1709277 9.33188013,16.1709277 C6.47975126,16.1709277 5.06828817,13.6364998 5.06828817,10.5124899 C5.06828817,7.3594525 6.47975126,4.82534704 9.33188013,4.82534704 C12.1807643,4.82534704 13.62143,7.3594525 13.62143,10.5124899 Z M18.5599285,10.5124899 C18.5599285,4.64827896 15.1789066,0.0509594835 9.33188013,0.0509594835 C3.51081165,0.0509594835 0.100587025,4.64827896 0.100587025,10.5124899 C0.100587025,16.3476733 3.51081165,20.9740203 9.32863539,20.9740203 C15.1789066,20.9740203 18.5599285,16.3476733 18.5599285,10.5124899 L18.5599285,10.5124899 Z" id="path3194"></path>
                            </g>
                        </g>
                        <g id="q61" transform="translate(46.747915, 11.817687) scale(-1, 1) rotate(-180.000000) translate(-46.747915, -11.817687) translate(37.985203, 0.714239)">
                            <g id="xfrm62" transform="translate(0.123679, 0.043251)">
                                <path d="M16.1810699,6.56409752 C16.1810699,2.17287367 12.1835468,0.0509594835 8.42289001,0.0509594835 C4.07168998,0.0509594835 1.83606223,1.70133719 0.0741669228,3.79357876 L3.27672801,6.91791115 C4.62978574,5.20818822 6.39492579,4.35348803 8.36448464,4.35348803 C9.98036652,4.35348803 11.0673553,5.14916553 11.0673553,6.32832928 C11.0673553,7.59522074 10.1069115,7.98999547 7.47866987,8.53861624 L6.77456069,8.68568918 C3.61093651,9.34622729 1.01189758,11.1314219 1.01189758,14.6972956 C1.01189758,18.6163379 4.21770341,20.9740203 8.45209269,20.9740203 C12.0375334,20.9740203 14.3607692,19.4420105 15.7722323,17.8519456 L12.6540345,14.7856684 C11.6838565,15.8174366 10.213988,16.6424642 8.53970074,16.6424642 C7.39430656,16.6424642 6.0996542,16.111905 6.0996542,14.7856684 C6.0996542,13.5774771 7.44622244,13.139161 9.15620187,12.7817996 L9.86355578,12.6340816 C12.7254189,12.0370815 16.1810699,11.1607719 16.1810699,6.56409752" id="path3198"></path>
                            </g>
                        </g>
                        <g id="q63" transform="translate(65.195136, 11.817687) scale(-1, 1) rotate(-180.000000) translate(-65.195136, -11.817687) translate(56.034120, 0.714239)">
                            <g id="xfrm64" transform="translate(0.095601, 0.043251)">
                                <path d="M17.2522972,4.38316064 C15.1951303,1.43621886 13.2839768,0.0509594835 9.31565642,0.0509594835 C3.67304879,0.0509594835 0.025957942,4.70730166 0.025957942,10.6305353 C0.025957942,16.2593005 3.31937183,20.9449928 9.37406179,20.9449928 C12.6966784,20.9449928 15.0783195,19.6484287 17.1062838,16.6127916 L13.0503553,13.9309682 C12.2261907,15.3459002 11.1684045,16.1709277 9.40326448,16.1709277 C7.17088147,16.1709277 5.02286177,14.1857656 5.02286177,10.6305353 C5.02286177,6.64666478 7.34609757,4.82534704 9.55252264,4.82534704 C11.4604314,4.82534704 12.3430014,5.76842001 13.1671661,7.12400678 L17.2522972,4.38316064" id="path3202"></path>
                            </g>
                        </g>
                        <g id="q65" transform="translate(84.509196, 11.700794) scale(-1, 1) rotate(-180.000000) translate(-84.509196, -11.700794) translate(75.348179, 0.993898)">
                            <g id="xfrm66" transform="translate(0.075244, 0.001158)">
                                <polyline id="path3206" points="16.7878368 0.0511451515 11.4956614 0.0511451515 11.4956614 7.91954743 5.408524 7.91954743 5.408524 0.0511451515 0.148796006 0.0511451515 0.148796006 20.0027505 5.408524 20.0027505 5.408524 12.6642624 11.4956614 12.6642624 11.4956614 20.0027505 16.7878368 20.0027505 16.7878368 0.0511451515"></polyline>
                            </g>
                        </g>
                    </g>
                </g>
            </g>
        </g>
    </g>
</svg>