<?xml version="1.0" encoding="UTF-8"?>
<svg width="144px" height="35px" viewBox="0 0 144 35" version="1.1" xmlns="http://www.w3.org/2000/svg" xmlns:xlink="http://www.w3.org/1999/xlink">
    <!-- Generator: Sketch 47.1 (45422) - http://www.bohemiancoding.com/sketch -->
    <title>Logo</title>
    <desc>Created with Sketch.</desc>
    <defs></defs>
    <g id="Page-1" stroke="none" stroke-width="1" fill="none" fill-rule="evenodd">
        <g id="Desktop-HD-Copy-10" transform="translate(-82.000000, -80.000000)" fill="#F5F5F5">
            <g id="Logo" transform="translate(82.000000, 80.000000)">
                <path d="M65.8216002,18.3235198 C65.8216002,24.6336277 60.7428846,29.7661106 54.5003236,29.7661106 C48.2571154,29.7661106 43.1783998,24.6336277 43.1783998,18.3235198 L43.1783998,1 L38,1 L38,18.3235198 C38,27.5194635 45.4018752,35 54.5003236,35 C63.5981248,35 71,27.5194635 71,18.3235198 L71,1.14262349 L65.8216002,1.14262349 L65.8216002,18.3235198 Z" id="Fill-1"></path>
                <path d="M92.5811381,28.8216002 L85.1794456,28.8216002 L85.2941007,6.1783998 L92.5811381,6.1783998 C98.7937675,6.1783998 103.846964,11.2564681 103.846964,17.4996764 C103.846964,23.7422373 98.7937675,28.8216002 92.5811381,28.8216002 M92.5811381,1 L80.1674737,1 L80,34 L92.5811381,34 C101.635023,34 109,26.5974775 109,17.4996764 C109,8.40122791 101.635023,1 92.5811381,1" id="Fill-3"></path>
                <polygon id="Fill-5" points="140.369532 4 117 27.3696184 120.630468 31 144 7.63038155"></polygon>
                <g id="Group-9">
                    <path d="M5.10682979,5.77108302 L7.3823617,5.76787547 L19.5195957,5.77493208 C21.7587447,5.77493208 24.4632128,8.44746038 24.4632128,11.7659887 C24.4632128,14.9106679 22.4915106,17.5678 20.2025745,17.5684415 L5.10682979,17.3034981 L5.10682979,5.77108302 Z M5.10619149,22.4362151 L18.5564043,22.6716491 L24.0547021,33.8768943 L29.7483191,33.8768943 L23.8370426,21.8280642 C27.2034255,20.1614226 29.5695957,16.2790075 29.5695957,11.7659887 C29.5695957,5.84036604 24.8736383,0.642856604 19.5208723,0.642856604 L7.38044681,0.6358 L0.000446808511,0.64670566 L-0.000191489362,33.4855736 L5.10619149,33.4855736 L5.10619149,22.4362151 Z" id="Fill-7"></path>
                </g>
            </g>
        </g>
    </g>
</svg>