<?xml version="1.0" encoding="UTF-8"?>
<svg width="113px" height="32px" viewBox="0 0 113 32" version="1.1" xmlns="http://www.w3.org/2000/svg" xmlns:xlink="http://www.w3.org/1999/xlink">
    <!-- Generator: Sketch 47.1 (45422) - http://www.bohemiancoding.com/sketch -->
    <title>Telefónica (1)</title>
    <desc>Created with Sketch.</desc>
    <defs></defs>
    <g id="Page-1" stroke="none" stroke-width="1" fill="none" fill-rule="evenodd">
        <g id="Desktop-HD-Copy-11" transform="translate(-685.000000, -1850.000000)" fill-rule="nonzero" fill="#FFFFFF">
            <g id="Logos" transform="translate(355.000000, 1843.000000)">
                <g id="Telefónica-(1)" transform="translate(330.000000, 7.000000)">
                    <path d="M32.1795433,0.405204307 C33.2580272,0.413602324 34.3179876,0.216248931 35.3717734,0 C34.6493538,1.39826978 32.9945808,1.83706616 31.5641489,1.94833988 C29.7076747,2.01972302 27.8491423,1.99872798 25.9906099,1.99242947 C24.7412975,2.98549495 23.9921216,4.44884936 23.3643781,5.89750724 C21.520253,10.2098888 20.1227519,14.6986288 18.4762116,19.088692 C17.8958061,20.6738177 17.1939683,22.3513215 15.7697109,23.3380885 C14.7323905,24.0267258 13.3863438,24.4004376 12.1781949,23.9952333 C12.7236114,23.4556607 13.2813769,22.9055906 13.6374412,22.2106547 C14.7426814,20.1405436 15.4136466,17.8730791 16.2410331,15.6811967 C17.3071679,12.8405676 18.3444883,9.98524189 19.5197065,7.18660281 C20.4417691,5.01571549 22.0594949,3.19964437 24.0518087,1.99662848 C20.7998916,2.00502649 17.3792041,1.78667806 14.3475117,3.2143409 C12.8553346,3.89877926 11.5072297,5.17947681 11.1902707,6.87377669 C10.9618132,7.76186696 11.1758635,8.66885276 11.4043209,9.52964948 C10.7004249,9.40577873 9.95330728,9.21262435 9.46757789,8.6373602 C8.54345714,7.66528977 8.54139896,6.11585568 9.07652456,4.94223284 C9.73514069,3.44318686 11.1017691,2.4123303 12.5404337,1.76148401 C14.8229503,0.734826463 17.3503896,0.430398357 19.8243165,0.407303811 C23.9427254,0.403104803 28.0611344,0.409403315 32.1795433,0.405204307 Z" id="Shape"></path>
                    <path d="M55.435799,2.61872138 C57.7024538,0.78942932 60.7421662,0.326263618 63.5592043,0.576967989 C64.5318282,0.700195561 65.603185,0.946650705 66.2670061,1.73700686 C66.7186565,2.27878325 66.7018509,3.08401169 66.3300271,3.66190651 C65.7061193,4.68384552 64.7019849,5.43808324 63.6012183,5.86513052 C63.9604379,5.07264975 64.582245,4.33540893 64.5297275,3.41332676 C64.5675401,2.6378429 63.9709414,2.0153312 63.2903148,1.76462683 C61.4879145,1.0571306 59.3704093,1.57341163 57.9125238,2.80568735 C56.4945516,3.98484774 55.6164591,5.66116764 54.8749122,7.32686447 C57.5385993,7.28224759 60.2106892,7.45009205 62.8680742,7.18664 C62.6622056,7.54782426 62.5739762,8.06198068 62.1055202,8.15758828 C60.3892486,8.75035539 59.3452009,10.384183 58.5049211,11.9096554 C57.5470021,13.796312 56.7487362,15.8975546 56.9209936,18.0540371 C56.9420006,18.6553026 57.5133909,19.1482129 58.1099896,19.0016146 C59.0868149,18.7849041 59.7653408,17.949931 60.3472346,17.1850702 C62.0277943,14.7587618 62.9458,11.7843032 62.876477,8.81834302 C64.0024519,8.45928337 65.1746423,8.2893143 66.3111208,7.97274692 C67.4244916,7.70717026 68.5147547,7.30986757 69.6575353,7.19301384 C70.2268248,7.12715082 70.9788753,7.39697671 70.9872781,8.0811022 C70.9347606,9.58745304 70.1974151,10.9514548 69.6785423,12.3324534 C70.7477983,10.7092489 71.9304922,9.09241813 73.554333,7.99611767 C74.4849429,7.36935674 75.6508312,6.95505714 76.7726048,7.22275842 C77.3692035,7.35660906 77.890177,7.87076548 77.9195868,8.51027409 C77.9405938,9.46847469 77.5645685,10.3778092 77.2074496,11.246776 C76.0205543,13.9110411 74.5311583,16.4754494 73.8631359,19.345802 C73.6299582,20.2530119 73.7370939,21.1920909 73.9093512,22.0993008 C73.0501651,22.0100671 72.1972811,21.614889 71.6973146,20.8797728 C71.0145872,19.900326 71.065004,18.6000627 71.3612026,17.4910145 C72.0250237,15.136943 73.2581344,13.0102051 74.2349597,10.7836103 C74.4660366,10.2758277 74.5899779,9.72767751 74.6529989,9.17315344 C74.1572338,9.16040576 73.6635694,9.27938411 73.3064505,9.64481759 C70.1301927,12.5194194 68.3950148,16.5476862 66.6157222,20.3698656 C65.6725081,20.3826133 64.7271933,20.3826133 63.7860799,20.3719902 C65.1452325,17.0533442 66.4980831,13.730449 67.7206902,10.3586877 C67.8719406,9.87215122 68.1030176,9.30275485 67.7963154,8.82896608 C66.9770426,8.82471686 66.1787767,9.04142741 65.3784102,9.17952728 C65.008687,12.3324534 63.6495344,15.3685259 61.5929495,17.7629651 C60.2737102,19.2671913 58.4902162,20.6524392 56.4042215,20.5950746 C55.3916843,20.6248192 54.2951191,20.1234104 53.9127918,19.120593 C53.414926,17.8033327 53.6922183,16.3437234 54.0619414,15.0307123 C54.8749122,12.4301856 56.4441348,9.96775882 58.7906162,8.53576945 C57.3033209,8.7036139 55.8055221,8.67599393 54.3119247,8.67599393 C52.9779804,12.1901043 51.7847831,15.7552055 50.5096584,19.290562 C49.9487716,20.752296 49.358475,22.2671453 48.2577084,23.405938 C47.3102929,24.4215032 45.8335011,24.8719212 44.484852,24.5978461 C45.1066591,23.8988483 45.7284661,23.180729 46.10029,22.3075129 C46.8817502,20.5483331 47.5413699,18.7360379 48.2093924,16.927992 C46.5540411,18.6255581 44.5436716,20.1659027 42.1530754,20.5249624 C40.9577773,20.6906822 39.5251002,20.6651868 38.6638134,19.6729924 C37.7584119,18.6255581 37.8697489,17.114958 38.086121,15.8359408 C38.5860875,13.4648723 39.8191982,11.274396 41.4619452,9.52159002 C42.8316014,8.15546366 44.596189,7.03791706 46.5540411,6.88919413 C47.3355013,6.84245264 48.3921532,7.00817248 48.6379351,7.89838545 C48.9005225,8.94581982 48.3711462,9.99325418 47.7787489,10.8218534 C46.1402033,12.9910836 43.7748155,14.4230729 41.401025,15.6362271 C41.2644795,16.4945709 41.0271004,17.4039054 41.3043928,18.258 C41.5648795,18.9187547 42.3694475,19.0611038 42.9870532,18.9251285 C44.8461723,18.6106858 46.3628774,17.3359178 47.6485056,16.0165329 C48.3543406,15.230426 49.1673114,14.471939 49.5076247,13.439377 C50.0748136,11.8395431 50.6714123,10.2503324 51.2785145,8.66537086 C50.6462039,8.7354831 50.0138933,8.8162184 49.379482,8.85233683 C49.8941534,7.93662849 50.9382011,7.70929487 51.8162936,7.31624141 C52.7868168,5.58893079 53.8308645,3.82762635 55.435799,2.61872138 L55.435799,2.61872138 Z M44.1088267,9.44722856 C42.9345357,10.9153364 42.2076936,12.6957623 41.6741159,14.4910606 C43.022765,13.6858321 44.2915876,12.7148838 45.3125276,11.5059789 C45.8314004,10.8728441 46.3082592,10.158974 46.4763152,9.3431225 C46.5414369,8.9585675 46.5876523,8.39766958 46.1254984,8.25319588 C45.2789164,8.17883441 44.6192967,8.85233683 44.1088267,9.44722856 Z" id="Shape"></path>
                    <path d="M84.6805545,1.57042687 C85.3602469,1.41752933 86.0975029,1.9072147 86.1107867,2.57045943 C86.2701934,3.78330882 84.7823976,5.13046011 83.5248559,4.43828882 C82.4311489,3.5436316 83.3831611,1.75638334 84.6805545,1.57042687 Z" id="Shape"></path>
                    <path d="M38.646021,2.13218337 C39.5869404,1.86058013 40.5656646,1.74811941 41.5233861,1.54229508 C39.82007,5.83489942 37.7177032,9.95350793 36.0395902,14.2588437 C35.1931828,16.5950559 34.0317354,19.041607 34.5105962,21.5921311 C33.248336,21.5030113 32.1519969,20.488743 31.8873633,19.2495532 C31.6731361,18.4114026 31.8327563,17.5414234 31.9944769,16.7096385 C30.5830978,18.1928468 28.8587789,19.4765965 26.8488239,19.9603898 C25.660073,20.189555 24.2150896,20.2150178 23.3182758,19.2559189 C22.4067602,18.2183096 22.4676679,16.6947852 22.7112988,15.4174012 C23.2069617,12.9453874 24.5049264,10.6664664 26.2460474,8.87346067 C27.6133209,7.56637007 29.3544418,6.49481041 31.2761857,6.3950811 C32.0448833,6.35052119 33.0509109,6.57332073 33.2756394,7.43693415 C33.5171701,8.61671073 32.8849899,9.74131789 32.1814006,10.6303941 C30.5725964,12.6377118 28.3043086,13.9172177 26.0990287,15.1330666 C25.817593,15.911804 25.7608858,16.7754174 25.8700997,17.594471 C25.9352079,18.1716278 26.5316836,18.5153757 27.0693519,18.4602063 C28.6319502,18.3435018 29.9257143,17.3058925 31.0136524,16.2513081 C31.9881761,15.2264302 32.9690005,14.1463829 33.5108693,12.8138295 C34.9180479,9.52488406 36.360931,6.25291378 37.858421,3.0064063 C38.0369437,2.65841465 38.2343687,2.23827838 38.646021,2.13218337 L38.646021,2.13218337 Z M28.8776813,8.78858465 C27.6259225,10.2887682 26.8509241,12.1348214 26.3153562,14.0063375 C28.102683,12.8605114 29.9299149,11.5194704 30.8771351,9.54610307 C31.0766604,9.00501849 31.3980012,8.23264677 30.8624332,7.78492581 C30.0622317,7.61729568 29.379645,8.23901247 28.8776813,8.78858465 Z" id="Shape"></path>
                    <path d="M87.7924205,8.11983445 C89.3455492,6.97178237 91.3564641,6.41139863 93.2649519,6.81227239 C93.7666355,6.93190487 94.3247584,7.20265207 94.4752635,7.74414647 C94.6675755,8.3024314 94.3811978,8.898495 94.0132965,9.31196165 C93.325572,10.0612388 92.4162706,10.6489071 91.398271,10.8000218 C91.8205214,10.0381518 92.5563239,9.29936876 92.424632,8.3570006 C92.3117532,7.80501212 91.6177576,7.75464055 91.1829652,7.91205171 C90.167056,8.27724561 89.4563376,9.16084694 88.8271428,9.99827432 C87.4872297,11.9333822 86.5193985,14.1833124 86.2915506,16.5423811 C86.2204787,17.1972115 86.2936409,18.1206903 87.0357145,18.35156 C88.0265395,18.5425522 88.9630155,17.9905637 89.7322636,17.4259824 C90.7042755,16.6515195 91.6971908,15.7847087 92.1445253,14.586285 C93.3966438,11.6899196 95.3427579,8.84812343 98.3298654,7.5720436 C100.443207,6.70313398 102.966258,6.41769508 105.090051,7.40623718 C103.743867,10.2900097 102.527284,13.2409443 101.574086,16.2779303 C101.110028,17.998959 100.702411,19.808138 101.041047,21.5921311 C100.140107,21.4997833 99.2140827,21.082119 98.789742,20.2383951 C98.1898121,19.1554064 98.5200871,17.885623 98.7688385,16.7522626 C97.709032,18.1185915 96.4485521,19.4765251 94.7470087,19.9907349 C93.8272556,20.2782726 92.6608413,20.2719762 91.9689361,19.5059085 C91.4317166,18.9581177 91.4191745,18.1458761 91.3710965,17.43018 C90.1754174,18.6537894 88.714264,19.7178889 87.0106303,20.0620946 C85.9800887,20.274075 84.805313,20.2362963 83.9315475,19.5835647 C83.4173219,19.2120744 83.1999257,18.5950226 82.967897,18.0346389 C81.7554951,19.1197265 80.2985225,20.104071 78.6220633,20.1586402 C77.7524785,20.2069129 76.7219368,19.8228297 76.4710951,18.9014497 C76.2035305,17.8226585 76.5965159,16.7270768 76.9288813,15.7091513 C77.7733819,13.4172448 78.8833568,11.2365755 79.8950853,9.01812748 C80.1960954,8.44095322 80.3884074,7.64760096 81.0991258,7.45241112 C82.073228,7.1795651 83.0828662,7.05993262 84.0820526,6.8941262 C82.9010059,9.3728273 81.7199592,11.8494296 80.6476106,14.3764035 C80.2190893,15.42791 79.7299478,16.4794166 79.568991,17.6148758 C79.4289377,18.1437773 80.0246869,18.4732913 80.4741117,18.317979 C81.2956185,18.0934057 81.9603492,17.5141326 82.5519178,16.9264643 C83.1769319,16.3765746 83.0703241,15.4593923 83.339979,14.7332021 C84.1343113,12.1663507 85.6372716,9.74851528 87.7924205,8.11983445 L87.7924205,8.11983445 Z M97.8762599,10.0612388 C96.3189505,12.0005443 95.1274521,14.2882532 94.6069554,16.7333733 C94.5296125,17.2307925 94.3435715,18.2298287 95.1274521,18.1857536 C96.2123428,18.0430341 97.0024944,17.1636304 97.660954,16.3576853 C99.6028874,13.8475019 100.539363,10.7622432 101.977523,7.96662092 C100.315696,7.77772752 98.8629042,8.81874001 97.8762599,10.0612388 Z" id="Shape"></path>
                    <path d="M4.94616063,30.2540913 C18.0439785,29.939162 31.1501549,29.9193551 44.252152,29.8322049 C61.7319296,29.7866491 79.2096177,29.8460697 96.6893953,30.0441384 C101.702424,30.1550569 106.719632,30.1570376 111.726392,30.4046235 C112.077451,30.4283918 112.430599,30.4699862 112.779567,30.5294068 C111.674152,30.7571859 110.541571,30.7393597 109.419438,30.7829348 C98.6264848,31.1057868 87.8293526,31.1394585 77.0322204,31.2266088 C75.7157518,31.3513921 74.3930143,31.3078169 73.0723664,31.3117783 C61.0235441,31.3890251 48.9747219,31.3632762 36.9258997,31.3058363 C35.3941989,31.1632268 33.8583189,31.2285894 32.3245285,31.2008598 C22.774907,31.1295551 13.2273751,31.0721151 3.68193284,30.7948189 C2.45322881,30.7334176 1.20362844,30.7987803 0,30.5135613 C1.63618242,30.287763 3.29744042,30.3551063 4.94616063,30.2540913 Z" id="Shape"></path>
                </g>
            </g>
        </g>
    </g>
</svg>