<?xml version="1.0" encoding="UTF-8"?>
<svg width="113px" height="38px" viewBox="0 0 113 38" version="1.1" xmlns="http://www.w3.org/2000/svg" xmlns:xlink="http://www.w3.org/1999/xlink">
    <!-- Generator: Sketch 47.1 (45422) - http://www.bohemiancoding.com/sketch -->
    <title>TUIfly_Logo_2016 (1)</title>
    <desc>Created with Sketch.</desc>
    <defs></defs>
    <g id="Page-1" stroke="none" stroke-width="1" fill="none" fill-rule="evenodd">
        <g id="Desktop-HD-Copy-11" transform="translate(-830.000000, -1844.000000)" fill-rule="nonzero" fill="#FFFFFF">
            <g id="Logos" transform="translate(355.000000, 1843.000000)">
                <g id="TUIfly_Logo_2016-(1)" transform="translate(475.000000, 1.000000)">
                    <path d="M2.21227312,10.4208038 L13.2810264,10.4208038 C14.3662045,10.4208038 15.184304,10.7664993 15.5058263,12.3204289 C15.8639656,14.0480969 15.7166949,15.2506639 13.7875606,15.3882944 L10.3126457,15.6382963 C12.8703707,31.9322939 27.8250158,37.2428893 35.9668233,19.694187 C37.3145834,16.7895352 37.7555926,16.2605482 39.2318332,16.6300457 C41.2330772,17.130697 41.5062588,18.1681073 40.5530943,21.0963993 C33.5131675,42.7302996 9.85300678,44.898871 5.21068613,16.0084414 L2.38732777,16.2142395 C0.090418132,16.3802058 0,14.4260142 0,13.3392187 C0,11.1908871 0.791600307,10.4208038 2.21227312,10.4208038" id="Shape"></path>
                    <path d="M42.622741,0 C44.8918158,0 46.7311331,1.86629344 46.7311331,4.16864742 C46.7311331,6.47067549 44.8918158,8.33664303 42.622741,8.33664303 C40.3543086,8.33664303 38.5146701,6.47067549 38.5146701,4.16864742 C38.5146701,1.86613049 40.3543086,0 42.622741,0" id="Shape"></path>
                    <g id="Group" transform="translate(52.379951, 18.236407)">
                        <path d="M11.9389729,1.32838064 C11.9249696,1.47652595 11.9061377,1.6231931 11.8819942,1.76772512 C11.8576897,1.91258562 11.8264641,2.05021952 11.7886392,2.18062682 C11.7506534,2.3113626 11.7071951,2.42238946 11.658908,2.5140359 C11.5758543,2.66924358 11.4617359,2.76992327 11.3165528,2.81574649 C11.1713698,2.86173395 10.9809578,2.88456344 10.7459609,2.88456344 L7.58187149,2.88456344 L7.58187149,13.9361713 C7.58187149,14.1125661 7.56464911,14.2449443 7.53004339,14.3331416 C7.49527672,14.4215033 7.43668843,14.5008316 7.35363471,14.571291 C7.14616135,14.7263344 6.69998902,14.8041846 6.01543962,14.8041846 C5.30304469,14.8041846 4.84995121,14.7263344 4.6564811,14.571291 C4.56650623,14.5008316 4.5043769,14.4215033 4.46977118,14.3331416 C4.4350045,14.2449443 4.41794308,14.1125661 4.41794308,13.9361713 L4.41794308,2.88456344 L0.890735099,2.88456344 C0.710785363,2.88456344 0.574293971,2.87569443 0.480939009,2.85812065 C0.387584047,2.84071111 0.313221992,2.81410408 0.257852842,2.77879228 C0.167877974,2.7222934 0.109128731,2.65019163 0.0814441561,2.56183001 C0.0537595813,2.47379688 0.0399172939,2.34125445 0.0399172939,2.16485969 C0.0399172939,2.03790145 0.0466774808,1.89862514 0.060680725,1.74670228 C0.0743620556,1.5951079 0.0935159184,1.44696259 0.117659443,1.30210209 C0.141802968,1.15757007 0.172867636,1.02157858 0.211014405,0.894620341 C0.249000216,0.767662103 0.292136647,0.658277644 0.34074561,0.566466965 C0.423799334,0.411259287 0.537917727,0.310743838 0.683100788,0.264756378 C0.828283849,0.218933159 1.01837387,0.195939429 1.25369275,0.195939429 L11.1090795,0.195939429 C11.2888683,0.195939429 11.4271302,0.204808439 11.5240262,0.222382218 C11.6209222,0.240120238 11.6967329,0.266563028 11.752263,0.301710587 C11.8353167,0.358209467 11.8905249,0.430639716 11.9182095,0.518672854 C11.9457331,0.607034474 11.9597363,0.735635122 11.9597363,0.905131761 C11.9597363,1.03898812 11.9528152,1.18023532 11.9389729,1.32838064 Z" id="Shape"></path>
                        <path d="M25.4157273,11.9830182 C25.1977918,12.6007283 24.8555976,13.1353326 24.3886618,13.5868309 C23.921887,14.0384934 23.325381,14.3912829 22.5991438,14.6453637 C21.8729065,14.8994444 21.0014863,15.0264026 19.9848829,15.0264026 C18.9682796,15.0264026 18.0968593,14.8994444 17.3706221,14.6453637 C16.6443849,14.3912829 16.0478789,14.0384934 15.581104,13.5868309 C15.1143292,13.1353326 14.7719741,12.6007283 14.5540385,11.9830182 C14.336103,11.3654723 14.2272961,10.6932342 14.2272961,9.96646806 L14.2272961,0.979040179 C14.2272961,0.802645421 14.2443576,0.668624823 14.2791242,0.576814143 C14.31373,0.485167705 14.3760203,0.407481745 14.4658342,0.343920506 C14.6593043,0.188712828 15.1125587,0.111026868 15.8247927,0.111026868 C16.509503,0.111026868 16.9555144,0.188712828 17.1629878,0.343920506 C17.2460415,0.407481745 17.3046298,0.485167705 17.3393965,0.576814143 C17.3740022,0.668624823 17.3912246,0.802645421 17.3912246,0.979040179 L17.3912246,9.9240939 C17.3912246,10.2770477 17.4395116,10.5999453 17.5364076,10.8926227 C17.6333036,11.1854642 17.7854078,11.4362601 17.9928812,11.6441892 C18.2003545,11.8524467 18.4683477,12.0130743 18.7968606,12.1259078 C19.1252125,12.2389056 19.5213273,12.2952402 19.984722,12.2952402 C20.4479557,12.2952402 20.8440705,12.2387413 21.1725834,12.1259078 C21.5009353,12.0130743 21.7690894,11.8524467 21.9765627,11.6441892 C22.1840361,11.4360959 22.3359793,11.1854642 22.4330363,10.8926227 C22.5299323,10.5999453 22.5782194,10.2770477 22.5782194,9.9240939 L22.5782194,0.979040179 C22.5782194,0.802645421 22.5952808,0.668624823 22.6300475,0.576814143 C22.6646532,0.485167705 22.7269435,0.407481745 22.8167574,0.343920506 C23.0102275,0.188712828 23.4634819,0.111026868 24.1757159,0.111026868 C24.8604263,0.111026868 25.3064376,0.188712828 25.513911,0.343920506 C25.5969647,0.407481745 25.655553,0.485167705 25.6903197,0.576814143 C25.7249254,0.668624823 25.7421478,0.802645421 25.7421478,0.979040179 L25.7421478,9.96646806 C25.7426307,10.6932342 25.6336629,11.3654723 25.4157273,11.9830182 Z" id="Shape"></path>
                        <path d="M32.247701,14.3331416 C32.2097151,14.4215033 32.1491954,14.5008316 32.0661416,14.571291 C31.8725106,14.7263344 31.4263382,14.8041846 30.7279466,14.8041846 C30.0155516,14.8041846 29.5624582,14.7263344 29.368988,14.571291 C29.2859343,14.5008316 29.2252536,14.4215033 29.1874287,14.3331416 C29.1494429,14.2449443 29.13045,14.1125661 29.13045,13.9361713 L29.13045,0.979040179 C29.13045,0.802645421 29.1494429,0.668624823 29.1874287,0.576814143 C29.2252536,0.485167705 29.2859343,0.407481745 29.368988,0.343920506 C29.5624582,0.188712828 30.0157126,0.111026868 30.7279466,0.111026868 C31.4264992,0.111026868 31.8725106,0.188712828 32.0661416,0.343920506 C32.1491954,0.407481745 32.2097151,0.485167705 32.247701,0.576814143 C32.2855258,0.668624823 32.3046797,0.802645421 32.3046797,0.979040179 L32.3046797,13.9361713 C32.3046797,14.1125661 32.2855258,14.24478 32.247701,14.3331416 Z" id="Shape"></path>
                    </g>
                    <g id="Group" transform="translate(91.921679, 18.236407)">
                        <path d="M7.49579225,1.24239138 C7.47489952,1.32395421 7.43667717,1.43171601 7.38096323,1.56633588 C7.32508733,1.68662045 7.26257111,1.8070698 7.19309064,1.92735438 C7.12344822,2.04763896 7.02238573,2.10794602 6.89038904,2.10794602 C6.77896116,2.10794602 6.67644103,2.08669025 6.58250474,2.04417872 C6.48856845,2.00166718 6.37535902,1.95207039 6.24320037,1.89555311 C6.0830228,1.82470056 5.91588098,1.76999579 5.74209884,1.73094449 C5.56815474,1.69222275 5.37315595,1.67261471 5.15758835,1.67261471 C4.80273591,1.67261471 4.51720197,1.73094449 4.30163438,1.84776883 C4.08590482,1.96459317 3.91698145,2.12211653 3.79535015,2.32033892 C3.67339493,2.51856131 3.59176753,2.75220999 3.54998207,3.02128494 C3.50819662,3.29052466 3.48730389,3.57360535 3.48730389,3.87085655 L3.48730389,5.28329408 L5.85692786,5.28329408 C5.96819378,5.28329408 6.05160273,5.28510659 6.10747863,5.28856683 C6.16319257,5.29219184 6.2082172,5.3116351 6.24320037,5.34689661 C6.27802159,5.38248766 6.3005339,5.42302192 6.31106125,5.46899369 C6.32142663,5.51513024 6.32677128,5.59817603 6.32677128,5.71862538 C6.32677128,5.90284204 6.30944166,6.06745066 6.27462044,6.21245124 C6.23963727,6.3576166 6.20157688,6.46916819 6.15979142,6.54694123 C6.09711324,6.65322007 6.02568927,6.72209535 5.94584342,6.75406138 C5.86583561,6.78586265 5.7458239,6.80184567 5.58564632,6.80184567 L3.48746585,6.80184567 L3.48746585,14.2466371 C3.48746585,14.374007 3.48050161,14.4643028 3.46657312,14.5175246 C3.45264464,14.5707464 3.41782343,14.6254511 3.36210949,14.6821332 C3.32032403,14.7246447 3.23497157,14.7635313 3.10637603,14.7989575 C2.97745656,14.8343838 2.79152749,14.8520146 2.54794096,14.8520146 C2.33221141,14.8520146 2.16328804,14.8376793 2.04165674,14.809503 C1.91970152,14.781162 1.83807412,14.7457357 1.79628866,14.7032242 C1.74057472,14.6607127 1.70575351,14.6076556 1.69182503,14.5438883 C1.67789654,14.480121 1.6709323,14.3883422 1.6709323,14.2677281 L1.6709323,6.8016809 L0.47049126,6.8016809 C0.366027624,6.8016809 0.284238265,6.80003316 0.225123185,6.79640815 C0.165846145,6.79294791 0.119039957,6.77350465 0.0842187453,6.73807837 C0.0493975333,6.70265209 0.0268852148,6.66211783 0.0163578717,6.61598128 C0.00599248765,6.5700095 0.000647836502,6.48696371 0.000647836502,6.36634959 C0.000647836502,5.9984106 0.0667271597,5.71154013 0.199047765,5.50606771 C0.254761705,5.41412415 0.320841028,5.35381709 0.397447694,5.32547607 C0.474054361,5.29729982 0.592284522,5.28296453 0.752300138,5.28296453 L1.6709323,5.28296453 L1.6709323,3.72173663 C1.6709323,3.20500727 1.73506811,2.72535192 1.86398758,2.28277059 C1.99258312,1.84035403 2.1927646,1.45807976 2.4642081,1.135783 C2.73565159,0.813651015 3.08013865,0.562371591 3.49766928,0.381779952 C3.9151999,0.201188313 4.40933719,0.110892494 4.97991919,0.110892494 C5.37655709,0.110892494 5.71586146,0.13742101 5.99767034,0.190478042 C6.27947922,0.243535075 6.51075685,0.30202963 6.69182715,0.365632159 C6.87969974,0.436484718 7.02934997,0.502064529 7.14061589,0.562042044 C7.25188181,0.622349106 7.33529076,0.677218646 7.39116666,0.726650664 C7.44688059,0.776247455 7.4833214,0.824031739 7.50081298,0.870003516 C7.51798065,0.916140066 7.5268884,0.960299335 7.5268884,1.00281087 C7.52721232,1.08140778 7.51668498,1.1611581 7.49579225,1.24239138 Z" id="Shape"></path>
                        <path d="M10.2680466,14.5282348 C10.2539562,14.5883771 10.2192969,14.6397864 10.163583,14.682298 C10.1148333,14.7248095 10.0278612,14.763696 9.90266682,14.7991223 C9.77747241,14.8345486 9.59300097,14.8521793 9.34941444,14.8521793 C9.13368489,14.8521793 8.96476152,14.8378441 8.84313022,14.8096678 C8.72133695,14.7813268 8.6395476,14.7459005 8.59776214,14.703389 C8.54188624,14.6608774 8.50722699,14.6078204 8.49329851,14.5440531 C8.47920806,14.4802858 8.47240578,14.388507 8.47240578,14.2678929 L8.47240578,0.982049423 C8.47240578,0.705889216 8.52099352,0.522002109 8.61849291,0.429729009 C8.66027836,0.387217474 8.73850462,0.344705938 8.85333364,0.302359176 C8.96816266,0.260012414 9.13336097,0.217336106 9.34925248,0.174989344 C9.5580178,0.132477808 9.72143455,0.11122204 9.83982668,0.11122204 C9.90250486,0.11122204 9.96340149,0.113034548 10.0225166,0.116494789 C10.0814697,0.120119804 10.1284378,0.132477808 10.163421,0.153733576 C10.2191349,0.196245111 10.2537942,0.249302144 10.2678846,0.313069447 C10.2818131,0.37683675 10.2887774,0.468945077 10.2887774,0.589229654 L10.2887774,14.2468019 C10.2889393,14.3741717 10.2819751,14.4682573 10.2680466,14.5282348 Z" id="Shape"></path>
                        <path d="M15.0142588,19.127225 C15.0142588,19.127225 14.3993,19.127225 13.9260554,19.127225 C13.4528108,19.127225 13.7010942,18.6090127 13.7010942,18.6090127 L15.6544832,14.1405231 L11.8129747,6.09051893 C11.7570988,5.97023435 11.7172569,5.88175104 11.692963,5.82506899 C11.6685072,5.76838695 11.6563602,5.69769916 11.6563602,5.61267609 C11.6563602,5.57016456 11.6702887,5.52419278 11.6981457,5.47459599 C11.7258407,5.42516397 11.7763719,5.37902742 11.8495775,5.33651588 C11.922783,5.29400435 12.02174,5.26055535 12.1470964,5.23567457 C12.2722908,5.21095856 12.4289053,5.19843578 12.6167778,5.19843578 C12.9091141,5.19843578 13.1298644,5.2249643 13.2796765,5.27802133 C13.4293268,5.33107836 13.5389731,5.43570947 13.6084536,5.59125555 L16.5522226,11.984628 L19.0784611,5.67627862 C19.1479415,5.478221 19.2574259,5.34887389 19.4072381,5.28856683 C19.5568883,5.22858931 19.7951302,5.19827101 20.1222876,5.19827101 C20.4630496,5.19827101 20.687525,5.23386206 20.7955517,5.30454985 C20.9034165,5.3754024 20.9573489,5.45696523 20.9573489,5.54874401 C20.9573489,5.63376708 20.9432584,5.71516514 20.9155634,5.79293818 C20.8877065,5.87104077 20.845921,5.96990481 20.790369,6.09035416 L16.7098089,16.0308034 C16.5846145,16.3423899 15.5574697,18.6156036 15.4648291,18.799326 C15.3098342,19.1071227 15.0142588,19.127225 15.0142588,19.127225 Z" id="Shape"></path>
                    </g>
                </g>
            </g>
        </g>
    </g>
</svg>