<?xml version="1.0" encoding="UTF-8"?>
<svg width="51px" height="51px" viewBox="0 0 51 51" version="1.1" xmlns="http://www.w3.org/2000/svg" xmlns:xlink="http://www.w3.org/1999/xlink">
    <!-- Generator: Sketch 47.1 (45422) - http://www.bohemiancoding.com/sketch -->
    <title>volkswagen-1</title>
    <desc>Created with Sketch.</desc>
    <defs></defs>
    <g id="Page-1" stroke="none" stroke-width="1" fill="none" fill-rule="evenodd">
        <g id="Desktop-HD-Copy-11" transform="translate(-475.000000, -1843.000000)" fill-rule="nonzero" fill="#FFFFFF">
            <g id="Logos" transform="translate(355.000000, 1843.000000)">
                <g id="volkswagen-1" transform="translate(120.000000, 0.000000)">
                    <path d="M25.4864072,0 C11.4104822,0 0,11.417113 0,25.5 C0,39.5831596 11.4107546,51 25.4864072,51 C39.5615149,51 50.9728145,39.5831596 50.9728145,25.5 C50.9728145,11.4173856 39.5615149,2.42119129e-15 25.4864072,0 Z M25.4864072,48.7136878 C12.6725011,48.7136878 2.28509346,38.3207402 2.28509346,25.5 C2.28509346,12.679805 12.6725011,2.28658478 25.4864072,2.28658478 C38.2997684,2.28658478 48.687721,12.679805 48.687721,25.5 C48.687721,38.3207402 38.2997684,48.7136878 25.4864072,48.7136878 Z M20.4067265,8.1565216 L20.4067265,8.1565216 L25.4864072,19.4081652 L30.5603664,8.15515859 C28.9506929,7.6846477 27.2478391,7.43221834 25.4864072,7.43221834 C23.7673623,7.43061988 22.0568883,7.67451354 20.4067265,8.1565216 Z M35.179868,10.2531029 L35.179868,10.2531029 L28.5515439,25.0136782 L22.4419773,25.0136782 L15.7921291,10.2533755 C13.8965541,11.4629589 12.2420183,13.0142953 10.912704,14.8284532 L19.2286242,33.2841474 L22.4419773,26.1348898 L28.5308372,26.1348898 L31.7444628,33.28442 L40.0723711,14.8456271 C38.7405482,13.0242441 37.0814456,11.4668677 35.179868,10.2531029 Z M8.03828692,20.8237869 C7.63176776,22.3492045 7.42650011,23.9212881 7.42771169,25.5 C7.42771169,32.5808345 11.4979408,38.7097431 17.425234,41.6731984 L8.03828692,20.8237869 Z M20.4906431,42.8680126 C22.1149387,43.3342051 23.7966033,43.5699436 25.4864072,43.5683269 C27.2175965,43.5683269 28.8915698,43.3243482 30.4761773,42.8699208 L25.4864072,31.7823835 L20.4906431,42.8680126 Z M33.5467632,41.6731984 C39.4743288,38.7097431 43.5445579,32.5808345 43.5445579,25.5 C43.5445579,23.8971008 43.3358561,22.3429973 42.9448809,20.8633142 L33.5467632,41.6731984 L33.5467632,41.6731984 Z" id="Combined-Shape"></path>
                </g>
            </g>
        </g>
    </g>
</svg>